<svg width="512" height="512" viewBox="0 0 512 512" fill="none" xmlns="http://www.w3.org/2000/svg">
<rect width="512" height="512" rx="20" fill="black"/>
<path d="M392.463 244.411L379.979 245.179C379.765 244.112 379.306 243.152 378.602 242.298C377.898 241.423 376.969 240.73 375.817 240.218C374.686 239.684 373.331 239.417 371.752 239.417C369.639 239.417 367.857 239.866 366.406 240.762C364.954 241.637 364.229 242.811 364.229 244.283C364.229 245.457 364.698 246.449 365.637 247.26C366.576 248.071 368.188 248.722 370.471 249.213L379.37 251.006C384.151 251.987 387.715 253.567 390.062 255.743C392.41 257.92 393.584 260.78 393.584 264.323C393.584 267.545 392.634 270.373 390.735 272.806C388.857 275.239 386.274 277.138 382.988 278.504C379.722 279.848 375.956 280.521 371.688 280.521C365.178 280.521 359.993 279.165 356.13 276.455C352.288 273.723 350.037 270.01 349.375 265.315L362.788 264.611C363.194 266.595 364.175 268.111 365.733 269.156C367.291 270.181 369.287 270.693 371.72 270.693C374.11 270.693 376.03 270.234 377.482 269.316C378.954 268.377 379.701 267.172 379.722 265.699C379.701 264.461 379.178 263.448 378.154 262.658C377.13 261.847 375.55 261.228 373.416 260.801L364.901 259.105C360.099 258.144 356.525 256.48 354.177 254.111C351.851 251.742 350.688 248.722 350.688 245.051C350.688 241.893 351.541 239.172 353.249 236.888C354.977 234.605 357.4 232.844 360.515 231.606C363.653 230.369 367.323 229.75 371.527 229.75C377.738 229.75 382.625 231.062 386.189 233.687C389.774 236.312 391.866 239.887 392.463 244.411Z" fill="white"/>
<path d="M342.294 244.411L329.81 245.179C329.596 244.112 329.138 243.152 328.433 242.298C327.729 241.423 326.801 240.73 325.648 240.218C324.517 239.684 323.162 239.417 321.583 239.417C319.47 239.417 317.688 239.866 316.237 240.762C314.786 241.637 314.06 242.811 314.06 244.283C314.06 245.457 314.529 246.449 315.468 247.26C316.407 248.071 318.019 248.722 320.302 249.213L329.202 251.006C333.982 251.987 337.546 253.567 339.893 255.743C342.241 257.92 343.415 260.78 343.415 264.323C343.415 267.545 342.465 270.373 340.566 272.806C338.688 275.239 336.105 277.138 332.819 278.504C329.554 279.848 325.787 280.521 321.519 280.521C315.01 280.521 309.824 279.165 305.961 276.455C302.119 273.723 299.868 270.01 299.206 265.315L312.619 264.611C313.025 266.595 314.007 268.111 315.564 269.156C317.122 270.181 319.118 270.693 321.551 270.693C323.941 270.693 325.862 270.234 327.313 269.316C328.785 268.377 329.532 267.172 329.554 265.699C329.532 264.461 329.009 263.448 327.985 262.658C326.961 261.847 325.381 261.228 323.247 260.801L314.732 259.105C309.93 258.144 306.356 256.48 304.008 254.111C301.682 251.742 300.519 248.722 300.519 245.051C300.519 241.893 301.373 239.172 303.08 236.888C304.808 234.605 307.231 232.844 310.347 231.606C313.484 230.369 317.154 229.75 321.359 229.75C327.569 229.75 332.456 231.062 336.02 233.687C339.605 236.312 341.697 239.887 342.294 244.411Z" fill="white"/>
<path d="M257.433 298C255.705 298 254.083 297.861 252.568 297.584C251.074 297.328 249.836 296.997 248.854 296.591L251.927 286.412C253.528 286.903 254.968 287.169 256.249 287.212C257.551 287.255 258.671 286.956 259.61 286.316C260.57 285.675 261.349 284.587 261.947 283.05L262.747 280.97L245.109 230.391H259.45L269.63 266.5H270.142L280.418 230.391H294.855L275.744 284.875C274.826 287.521 273.578 289.826 271.999 291.79C270.441 293.774 268.467 295.3 266.077 296.367C263.686 297.456 260.805 298 257.433 298Z" fill="white"/>
<path d="M210.273 280.361C206.539 280.361 203.156 279.4 200.126 277.48C197.117 275.538 194.726 272.688 192.955 268.932C191.205 265.155 190.33 260.524 190.33 255.039C190.33 249.405 191.237 244.721 193.051 240.986C194.865 237.23 197.277 234.424 200.286 232.567C203.316 230.689 206.635 229.75 210.241 229.75C212.994 229.75 215.289 230.219 217.124 231.158C218.981 232.076 220.475 233.228 221.606 234.616C222.758 235.982 223.633 237.326 224.231 238.649H224.647V214H238.252V279.56H224.807V271.685H224.231C223.59 273.051 222.683 274.406 221.51 275.751C220.357 277.074 218.853 278.173 216.996 279.048C215.161 279.923 212.92 280.361 210.273 280.361ZM214.595 269.509C216.793 269.509 218.65 268.911 220.165 267.716C221.702 266.5 222.875 264.803 223.686 262.626C224.519 260.449 224.935 257.899 224.935 254.975C224.935 252.051 224.529 249.512 223.718 247.356C222.907 245.201 221.734 243.536 220.197 242.363C218.661 241.189 216.793 240.602 214.595 240.602C212.354 240.602 210.466 241.21 208.929 242.427C207.392 243.643 206.229 245.329 205.44 247.484C204.65 249.64 204.255 252.137 204.255 254.975C204.255 257.835 204.65 260.364 205.44 262.562C206.251 264.739 207.414 266.446 208.929 267.684C210.466 268.9 212.354 269.509 214.595 269.509Z" fill="white"/>
<path d="M121.735 261.541C119.672 257.212 118.639 252.217 118.639 246.553C118.639 240.888 119.672 235.881 121.735 231.531L121.735 261.541Z" fill="white"/>
<path d="M129.477 271.396C128.661 270.733 127.887 270.029 127.154 269.283L127.154 223.808C127.887 223.065 128.661 222.363 129.477 221.702L129.477 271.396Z" fill="white"/>
<path d="M185.989 246.553C185.989 253.153 184.574 258.848 181.743 263.636C178.94 268.452 175.004 272.163 169.937 274.77C164.898 277.376 159.009 278.679 152.271 278.679C148.848 278.679 145.637 278.336 142.637 277.651L142.637 268.615L137.218 268.615L137.218 275.95C136.426 275.627 135.652 275.275 134.896 274.895L134.896 253.781C134.994 253.909 135.095 254.035 135.2 254.159C136.927 256.171 139.277 257.686 142.249 258.706C145.222 259.754 148.605 260.278 152.399 260.278C156.192 260.278 159.575 259.754 162.548 258.706C165.52 257.686 167.87 256.171 169.597 254.159C171.324 252.148 172.187 249.64 172.187 246.637C172.187 243.606 171.324 241.056 169.597 238.988C167.87 236.949 165.521 235.404 162.548 234.356C159.575 233.336 156.192 232.826 152.399 232.826C148.605 232.826 145.222 233.336 142.249 234.356C139.277 235.404 136.927 236.949 135.2 238.988C135.095 239.116 134.994 239.245 134.896 239.376L134.896 218.209C135.652 217.829 136.426 217.478 137.218 217.154L137.218 227.586L142.637 227.586L142.637 215.453C145.637 214.769 148.848 214.425 152.271 214.425C159.009 214.425 164.898 215.728 169.937 218.335C175.004 220.941 178.94 224.638 181.743 229.426C184.574 234.242 185.989 239.952 185.989 246.553Z" fill="white"/>
</svg>
